<svg viewBox="0 0 735 212" fill="none" xmlns="http://www.w3.org/2000/svg">
<g id="_.svg" clip-path="url(#clip0_0_4)">
<path id="Vector" fill-rule="evenodd" clip-rule="evenodd" d="M672.624 212C663.683 212 655.471 210.545 647.986 207.635C640.5 204.518 634.055 200.257 628.649 194.853C623.451 189.241 619.292 182.486 616.174 174.588C613.263 166.69 611.807 157.857 611.807 148.088V77.9412L568.476 78.0801C555.169 78.0801 544.773 83.1364 537.287 90.4109C530.01 97.6854 526.372 107.558 526.372 120.028V174.587H580.951V208.881H454.002V174.577H416.577V144.97V140.293H376.033C363.692 140.293 347.964 145.6 347.964 160.813C347.964 173.516 358.53 181.642 371.646 182.698C396.225 184.676 406.038 179.712 412.33 176.53C413.9 175.736 415.251 175.053 416.558 174.616V196.215C398.227 210.198 385.076 211.999 369.795 211.999C350.251 211.999 335.488 207.322 325.508 197.969C315.528 188.617 310.538 176.146 310.538 160.558C310.538 144.97 315.736 132.499 326.132 123.146C336.736 113.793 353.369 109.117 376.033 109.117H416.577V101.322C416.577 94.2558 413.666 88.1244 407.845 82.9283C402.023 77.5244 394.018 74.8225 383.83 74.8225C375.097 74.8225 368.132 76.693 362.934 80.4342C357.944 84.1754 355.033 88.0205 354.201 91.9695H316.776C317.607 85.3186 319.478 78.9793 322.389 72.9519C325.508 66.7166 329.771 61.2087 335.176 56.4283C340.79 51.6479 347.756 47.8028 356.072 44.8931C364.389 41.9832 374.161 40.5283 385.389 40.5283C407.221 40.5283 424.062 46.244 435.914 57.6754C447.973 69.1068 454.003 84.1754 454.003 102.881V174.587H488.946V77.9403H456.199V43.6461H513.896L520.134 65.4697H524.812C527.931 57.7795 533.233 52.2716 540.718 48.9462C548.203 45.4128 555.896 43.6461 563.797 43.6461L611.807 43.6471L618.045 0H649.233V43.6471H710.05V77.9412H649.237V43.6492L611.807 43.6471L611.809 77.9533H649.233V148.088C649.233 158.273 651.312 165.755 655.471 170.535C659.837 175.316 665.555 177.706 672.624 177.706C679.693 177.706 685.411 175.939 689.777 172.406C694.144 168.665 696.743 162.118 697.574 152.765H735C735 161.702 733.441 169.808 730.322 177.082C727.203 184.357 722.837 190.592 717.223 195.788C711.609 200.984 704.956 205.037 697.263 207.947C689.777 210.649 681.565 212 672.624 212ZM204.157 123.146L152.697 43.6461H196.36L223.806 90.4109L228.484 107.558H233.162L237.84 90.4109L264.974 43.6461H308.637L257.177 123.146L311.756 208.881H268.093L237.84 157.44L233.162 140.293H228.484L223.806 157.44L193.242 208.881H149.578L204.157 123.146ZM17.1534 194.852C28.589 206.283 43.6632 211.999 62.3761 211.999C71.1087 211.999 79.1136 210.544 86.3908 207.634C93.668 204.517 99.6977 200.256 104.48 194.852H106.039L109.158 208.881H141.906V43.6461H104.48V143.411C104.48 148.399 103.544 153.076 101.673 157.44C99.8017 161.597 97.3066 165.234 94.1878 168.352C91.069 171.262 87.4304 173.548 83.272 175.211C79.1136 176.874 74.7473 177.705 70.1731 177.705C60.8167 177.705 53.0196 174.795 46.782 168.976C40.5444 162.948 37.4256 154.427 37.4256 143.411V43.6461H0V144.97C0 166.793 5.7178 183.421 17.1534 194.852Z" fill="var(--fill-0, black)"/>
</g>
<defs>
<clipPath id="clip0_0_4">
<rect width="735" height="212" fill="white"/>
</clipPath>
</defs>
</svg>
